<?xml version="1.0" standalone="no"?>
<!DOCTYPE svg PUBLIC "-//W3C//DTD SVG 20010904//EN"
 "http://www.w3.org/TR/2001/REC-SVG-20010904/DTD/svg10.dtd">
<svg version="1.0" xmlns="http://www.w3.org/2000/svg"
 width="300.000000pt" height="300.000000pt" viewBox="0 0 300.000000 300.000000"
 preserveAspectRatio="xMidYMid meet">
<metadata>
Created by potrace 1.10, written by Peter Selinger 2001-2011
</metadata>
<g transform="translate(0.000000,300.000000) scale(0.100000,-0.100000)"
fill="#000000" stroke="none">
<path d="M1611 2533 c-18 -9 -44 -33 -57 -52 -22 -35 -23 -44 -24 -231 l-1
-195 22 3 c32 4 79 33 101 63 30 40 38 92 38 267 0 161 0 162 -22 162 -13 0
-38 -8 -57 -17z m37 -191 c2 -132 0 -168 -13 -192 -16 -30 -59 -59 -71 -47 -8
8 -5 312 3 335 9 25 55 73 68 69 6 -2 11 -64 13 -165z"/>
<path d="M1262 2221 c7 -98 62 -153 168 -167 l53 -7 -5 64 c-6 106 -72 168
-177 169 l-43 0 4 -59z m128 0 c33 -23 72 -94 64 -115 -8 -20 -55 -21 -94 -1
-45 23 -86 115 -63 139 12 11 65 -2 93 -23z"/>
<path d="M783 2094 c-7 -3 -13 -14 -13 -24 0 -30 26 -42 84 -38 l54 3 113
-320 c61 -176 116 -328 121 -338 12 -24 52 -18 56 8 1 11 -13 62 -32 113 l-34
92 369 0 c339 0 369 -1 369 -17 0 -9 -16 -31 -35 -49 -40 -36 -44 -58 -15 -74
17 -9 27 -4 65 31 l45 42 0 182 c0 150 -3 185 -15 195 -12 10 -18 10 -30 0
-12 -10 -15 -37 -15 -126 l0 -114 -381 2 -381 3 -77 215 -76 215 -80 2 c-44 1
-86 -1 -92 -3z"/>
<path d="M1422 1996 c-109 -36 -192 -139 -192 -237 l0 -29 275 0 276 0 -7 38
c-9 52 -36 111 -69 150 -61 72 -190 108 -283 78z m159 -31 c23 -9 58 -27 76
-41 52 -39 98 -146 69 -157 -20 -8 -430 -9 -450 -1 -11 4 -14 13 -10 33 32
132 183 212 315 166z"/>
<path d="M1305 1490 c-92 -38 -91 -168 2 -206 45 -19 83 -11 117 25 84 88 -8
228 -119 181z m73 -72 c7 -7 12 -21 12 -33 0 -12 -5 -26 -12 -33 -7 -7 -21
-12 -33 -12 -12 0 -26 5 -33 12 -7 7 -12 21 -12 33 0 12 5 26 12 33 7 7 21 12
33 12 12 0 26 -5 33 -12z"/>
<path d="M1634 1490 c-37 -15 -64 -59 -64 -105 0 -53 28 -91 79 -106 32 -9 44
-8 75 6 130 62 44 259 -90 205z m88 -85 c10 -22 9 -29 -9 -47 -28 -27 -70 -18
-79 17 -8 33 11 55 47 55 22 0 32 -7 41 -25z"/>
<path d="M460 1011 c0 -113 1 -121 20 -121 17 0 19 8 22 77 l3 76 45 -71 c74
-119 92 -110 88 44 -3 101 -4 109 -23 109 -18 0 -20 -6 -18 -75 3 -85 10 -87
-67 23 -19 29 -43 53 -53 55 -15 3 -17 -9 -17 -117z"/>
<path d="M707 1123 c-1 -1 -1 -52 1 -115 l3 -113 77 2 c68 1 77 3 77 20 0 15
-8 18 -57 18 -57 0 -58 0 -58 27 0 27 2 28 55 28 48 0 55 2 55 20 0 18 -7 20
-55 20 -53 0 -55 1 -55 28 0 27 1 27 58 27 49 0 57 3 57 19 0 17 -9 19 -78 20
-43 0 -79 0 -80 -1z"/>
<path d="M916 1122 c-3 -5 5 -58 17 -117 18 -84 27 -109 40 -111 20 -3 33 17
42 69 9 47 21 47 30 0 9 -52 22 -72 42 -69 14 2 23 25 40 107 23 108 23 129
-1 129 -18 0 -22 -13 -31 -84 -9 -71 -22 -80 -31 -21 -6 42 -9 46 -32 43 -22
-2 -28 -11 -37 -48 -13 -52 -20 -45 -29 25 -4 28 -9 58 -12 68 -6 18 -29 23
-38 9z"/>
<path d="M1205 1118 c-3 -8 -4 -61 -3 -119 3 -96 4 -104 23 -104 18 0 20 6 18
68 0 37 2 67 6 67 5 0 16 -18 26 -40 11 -23 25 -40 35 -40 9 0 26 18 39 40 12
22 24 40 27 40 2 0 3 -30 2 -67 -3 -62 -1 -68 17 -68 19 0 20 7 20 115 0 99
-2 115 -17 118 -11 2 -27 -15 -50 -57 -18 -34 -35 -61 -38 -61 -3 0 -19 26
-36 58 -30 56 -59 77 -69 50z"/>
<path d="M1543 1113 c-3 -10 -23 -62 -43 -115 -21 -53 -35 -100 -32 -103 13
-12 33 -3 44 20 10 22 17 25 63 25 46 0 53 -3 63 -25 11 -23 31 -32 44 -19 3
3 -14 55 -37 117 -38 100 -46 112 -69 115 -18 2 -28 -2 -33 -15z m46 -65 c25
-68 25 -68 -14 -68 -31 0 -36 3 -30 18 4 9 12 29 17 45 12 33 16 34 27 5z"/>
<path d="M1735 1118 c-3 -8 -4 -61 -3 -119 3 -96 4 -104 23 -104 17 0 20 6 19
43 -1 39 1 42 26 42 21 0 30 -9 48 -45 15 -31 28 -45 42 -45 25 0 25 14 -1 56
l-21 34 21 26 c46 59 13 114 -68 114 -27 0 -56 3 -65 6 -9 3 -18 0 -21 -8z
m130 -50 c19 -17 -10 -43 -52 -46 -40 -3 -41 -3 -38 30 2 18 3 34 4 35 3 5 77
-11 86 -19z"/>
<path d="M1970 1010 c0 -113 1 -120 20 -120 17 0 20 7 20 52 l0 53 46 -53 c42
-48 75 -64 88 -44 3 5 -17 31 -44 57 -28 27 -50 54 -50 60 0 6 20 31 45 55 24
24 42 47 39 52 -12 20 -45 4 -83 -39 l-40 -48 -1 48 c0 40 -3 47 -20 47 -19 0
-20 -7 -20 -120z"/>
<path d="M2193 1114 c-2 -6 -2 -57 -1 -113 l3 -103 75 0 c69 0 75 1 78 22 3
20 0 21 -55 19 -56 -3 -58 -2 -61 24 -3 26 -2 27 52 27 49 0 56 2 56 20 0 18
-7 20 -56 20 -54 0 -55 0 -52 28 3 26 4 27 61 24 56 -4 59 -3 55 19 -3 21 -8
23 -77 23 -43 1 -75 -3 -78 -10z"/>
<path d="M2394 1121 c-2 -2 -4 -13 -4 -24 0 -17 5 -19 35 -14 l35 6 0 -100 c0
-92 1 -99 20 -99 19 0 20 7 20 99 l0 100 36 -6 c33 -5 36 -4 32 17 -3 21 -8
23 -86 24 -46 0 -86 -1 -88 -3z"/>
<path d="M782 808 c-21 -21 -13 -39 23 -54 19 -8 35 -19 35 -24 0 -14 -44 -12
-58 2 -7 7 -12 8 -12 2 0 -17 23 -34 45 -34 24 0 45 18 45 38 0 7 -16 20 -35
28 -19 8 -35 19 -35 24 0 14 34 12 48 -2 17 -17 28 -2 12 17 -15 18 -51 20
-68 3z"/>
<path d="M910 760 c0 -33 4 -60 10 -60 6 0 10 11 10 25 0 20 5 25 25 25 20 0
25 -5 25 -25 0 -14 5 -25 10 -25 6 0 10 27 10 60 0 33 -4 60 -10 60 -5 0 -10
-11 -10 -25 0 -20 -5 -25 -25 -25 -20 0 -25 5 -25 25 0 14 -4 25 -10 25 -6 0
-10 -27 -10 -60z"/>
<path d="M1062 808 c-7 -7 -12 -28 -12 -48 0 -20 5 -41 12 -48 17 -17 53 -15
68 3 16 19 15 71 -1 91 -14 17 -51 18 -67 2z m63 -28 c10 -33 -4 -62 -28 -58
-22 3 -34 35 -23 64 8 21 44 17 51 -6z"/>
<path d="M1200 818 c-6 -37 -5 -118 1 -118 4 0 9 10 11 22 2 17 12 24 33 28
22 4 31 11 33 29 2 13 -2 28 -10 32 -12 8 -67 13 -68 7z m63 -25 c11 -10 -13
-33 -34 -33 -12 0 -19 7 -19 20 0 14 7 20 23 20 13 0 27 -3 30 -7z"/>
<path d="M1380 810 c0 -5 9 -10 20 -10 17 0 20 -7 20 -50 0 -30 4 -50 11 -50
8 0 10 17 7 50 -4 44 -3 50 13 50 11 0 19 5 19 10 0 6 -20 10 -45 10 -25 0
-45 -4 -45 -10z"/>
<path d="M1513 763 c-22 -54 -22 -87 -2 -50 6 9 21 17 34 17 13 0 28 -8 34
-17 5 -10 12 -15 15 -12 10 9 -35 119 -48 119 -6 0 -21 -26 -33 -57z m50 -3
c4 -15 0 -20 -14 -20 -20 0 -23 8 -13 34 7 20 20 13 27 -14z"/>
<path d="M1652 808 c-7 -7 -12 -28 -12 -48 0 -42 14 -60 47 -60 25 0 59 42 48
60 -8 13 -45 13 -45 0 0 -5 7 -10 16 -10 26 0 9 -25 -19 -28 -25 -3 -27 -1
-27 37 0 36 3 41 23 41 13 0 28 -5 35 -12 9 -9 12 -8 12 4 0 27 -56 38 -78 16z"/>
<path d="M1780 760 l0 -60 40 0 c22 0 40 5 40 10 0 6 -13 10 -30 10 -29 0 -30
1 -30 50 0 28 -4 50 -10 50 -6 0 -10 -27 -10 -60z"/>
<path d="M1910 760 c0 -33 4 -60 10 -60 6 0 10 27 10 60 0 33 -4 60 -10 60 -6
0 -10 -27 -10 -60z"/>
<path d="M1980 760 c0 -33 4 -60 10 -60 6 0 10 19 10 43 l1 42 25 -42 c14 -24
30 -43 35 -43 5 0 9 27 9 60 0 33 -4 60 -10 60 -5 0 -10 -19 -10 -42 l-1 -43
-25 43 c-14 23 -30 42 -35 42 -5 0 -9 -27 -9 -60z"/>
<path d="M2120 760 l0 -60 40 0 c22 0 40 5 40 10 0 6 -13 10 -30 10 -20 0 -30
5 -30 15 0 10 10 15 30 15 17 0 30 5 30 10 0 6 -13 10 -30 10 -20 0 -30 5 -30
15 0 10 10 15 30 15 17 0 30 5 30 10 0 6 -18 10 -40 10 l-40 0 0 -60z"/>
</g>
</svg>
